<?xml version="1.0" standalone="no"?><!DOCTYPE svg PUBLIC "-//W3C//DTD SVG 1.1//EN" "http://www.w3.org/Graphics/SVG/1.1/DTD/svg11.dtd"><svg t="1740727519250" class="icon" viewBox="0 0 1024 1024" version="1.1" xmlns="http://www.w3.org/2000/svg" p-id="31369" xmlns:xlink="http://www.w3.org/1999/xlink" width="64" height="64"><path d="M213.333 576h-4.266c-12.8-4.267-17.067-12.8-17.067-25.6 0 0 8.533-38.4 12.8-72.533-21.333-8.534-38.4-17.067-59.733-29.867l-12.8-8.533c-51.2-21.334-85.334-51.2-89.6-89.6-8.534-34.134 4.266-64 17.066-81.067 0-4.267 4.267-4.267 4.267-4.267L281.6 76.8c8.533-4.267 17.067-12.8 25.6-12.8h29.867l25.6 12.8c8.533 8.533 12.8 17.067 17.066 25.6 21.334 55.467 72.534 68.267 115.2 68.267H537.6c38.4 0 89.6-12.8 110.933-68.267 4.267-8.533 8.534-17.067 17.067-25.6 8.533-8.533 17.067-12.8 25.6-12.8 8.533-4.267 21.333-4.267 29.867 0l25.6 12.8 217.6 187.733c4.266 0 4.266 4.267 4.266 4.267 12.8 17.067 25.6 42.667 17.067 76.8-8.533 38.4-38.4 72.533-93.867 93.867C870.4 452.267 844.8 460.8 819.2 473.6c0 4.267 0 8.533 4.267 17.067 4.266 12.8 4.266 29.866 8.533 59.733 0 12.8-8.533 21.333-21.333 21.333s-21.334-8.533-21.334-21.333c-4.266-25.6-4.266-42.667-8.533-55.467 0-8.533-4.267-21.333-4.267-34.133l-4.266-17.067 12.8-8.533c29.866-12.8 59.733-25.6 85.333-42.667 42.667-17.066 64-42.666 68.267-64 4.266-17.066-4.267-34.133-8.534-42.666l-217.6-187.734c-4.266 0-4.266-4.266-8.533-4.266h-8.533c-4.267 0-4.267 4.266-8.534 4.266 0 0-4.266 4.267-4.266 8.534C665.6 179.2 610.133 213.333 537.6 213.333h-42.667c-76.8 0-136.533-34.133-153.6-93.866 0-4.267-4.266-4.267-4.266-8.534 0 0-4.267-4.266-8.534-4.266H320c-4.267 0-4.267 0-8.533 4.266L93.867 294.4c-8.534 12.8-17.067 25.6-12.8 42.667 8.533 29.866 42.666 51.2 68.266 64L166.4 409.6c21.333 12.8 46.933 25.6 72.533 34.133L256 452.267l-4.267 17.066c-4.266 34.134-17.066 89.6-17.066 89.6-4.267 8.534-12.8 17.067-21.334 17.067z" fill="#555555" p-id="31370"></path><path d="M85.333 640H256c25.6 0 42.667 17.067 42.667 42.667v170.666C298.667 878.933 281.6 896 256 896H85.333c-25.6 0-42.666-17.067-42.666-42.667V682.667c0-25.6 17.066-42.667 42.666-42.667z" fill="#428BF9" p-id="31371"></path><path d="M426.667 640h170.666c25.6 0 42.667 17.067 42.667 42.667v170.666c0 25.6-17.067 42.667-42.667 42.667H426.667c-25.6 0-42.667-17.067-42.667-42.667V682.667c0-25.6 17.067-42.667 42.667-42.667z" fill="#F9AE55" p-id="31372"></path><path d="M768 640h170.667c25.6 0 42.666 17.067 42.666 42.667v170.666c0 25.6-17.066 42.667-42.666 42.667H768c-25.6 0-42.667-17.067-42.667-42.667V682.667C725.333 657.067 742.4 640 768 640z" fill="#4DBAD2" p-id="31373"></path></svg>